HIERARCHY
ROOT SpineBase
{
  OFFSET 0.000000 0.000000 0.000000
  CHANNELS 6 Xposition Yposition Zposition Zrotation Xrotation Yrotation
  JOINT SpineMid
  {
    OFFSET 0.000000 31.877414 0.000000
    CHANNELS 3 Zrotation Xrotation Yrotation
    JOINT SpineShoulder
    {
      OFFSET 0.300368 23.649694 -0.619285
      CHANNELS 3 Zrotation Xrotation Yrotation
      JOINT Neck
      {
        OFFSET 0.217516 7.822592 -0.499446
        CHANNELS 3 Zrotation Xrotation Yrotation
        JOINT Head
        {
          OFFSET 2.831499 12.818662 4.547500
          CHANNELS 3 Zrotation Xrotation Yrotation
          End Site
          {
            OFFSET 0 0 0
          }
        }
      }
      JOINT ShoulderLeft
      {
        OFFSET -6.619200 -3.101274 -14.284360
        CHANNELS 3 Zrotation Xrotation Yrotation
        JOINT ElbowLeft
        {
          OFFSET -3.261506 -24.404096 -9.059475
          CHANNELS 3 Zrotation Xrotation Yrotation
          JOINT WristLeft
          {
            OFFSET 4.678585 -24.512903 -3.708893
            CHANNELS 3 Zrotation Xrotation Yrotation
            JOINT HandLeft
            {
              OFFSET 1.750167 -8.149153 3.670864
              CHANNELS 3 Zrotation Xrotation Yrotation
              JOINT HandTipLeft
              {
                OFFSET 1.378690 -7.869794 0.105194
                CHANNELS 3 Zrotation Xrotation Yrotation
                End Site
                {
                  OFFSET 0 0 0
                }
              }
              JOINT ThumbLeft
              {
                OFFSET 3.217114 1.675028 5.546090
                CHANNELS 3 Zrotation Xrotation Yrotation
                End Site
                {
                  OFFSET 0 0 0
                }
              }
            }
          }
        }
      }
      JOINT ShoulderRight
      {
        OFFSET 7.642396 -6.130201 13.755246
        CHANNELS 3 Zrotation Xrotation Yrotation
        JOINT ElbowRight
        {
          OFFSET -0.023028 -28.159789 7.414064
          CHANNELS 3 Zrotation Xrotation Yrotation
          JOINT WristRight
          {
            OFFSET 0.707468 -23.057474 1.944828
            CHANNELS 3 Zrotation Xrotation Yrotation
            JOINT HandRight
            {
              OFFSET 1.957326 -6.675937 0.539460
              CHANNELS 3 Zrotation Xrotation Yrotation
              JOINT HandTipRight
              {
                OFFSET -4.306567 -6.373640 -2.339119
                CHANNELS 3 Zrotation Xrotation Yrotation
                End Site
                {
                  OFFSET 0 0 0
                }
              }
              JOINT ThumbRight
              {
                OFFSET 3.285220 -2.269376 -1.524784
                CHANNELS 3 Zrotation Xrotation Yrotation
                End Site
                {
                  OFFSET 0 0 0
                }
              }
            }
          }
        }
      }
    }
  }
  JOINT HipLeft
  {
    OFFSET -2.196179 1.777487 -8.679408
    CHANNELS 3 Zrotation Xrotation Yrotation
    JOINT KneeLeft
    {
      OFFSET -8.817563 -37.227208 -6.607121
      CHANNELS 3 Zrotation Xrotation Yrotation
      JOINT AnkleLeft
      {
        OFFSET -8.110985 -35.735703 5.065947
        CHANNELS 3 Zrotation Xrotation Yrotation
        JOINT FootLeft
        {
          OFFSET 4.338669 -7.111966 -4.344378
          CHANNELS 3 Zrotation Xrotation Yrotation
          End Site
          {
            OFFSET 0 0 0
          }
        }
      }
    }
  }
  JOINT HipRight
  {
    OFFSET 4.825602 0.136224 2.096293
    CHANNELS 3 Zrotation Xrotation Yrotation
    JOINT KneeRight
    {
      OFFSET -6.130539 -39.662333 1.621416
      CHANNELS 3 Zrotation Xrotation Yrotation
      JOINT AnkleRight
      {
        OFFSET -12.981440 -35.325758 3.958577
        CHANNELS 3 Zrotation Xrotation Yrotation
        JOINT FootRight
        {
          OFFSET 3.580853 -7.583278 -3.622437
          CHANNELS 3 Zrotation Xrotation Yrotation
          End Site
          {
            OFFSET 0 0 0
          }
        }
      }
    }
  }
}
MOTION
Frames: 5
Frame Time: 0.033333
-121.584966 83.713239 290.822222 4.473166 0.027688 -56.293622 0.424284 -0.759500 56.441821 -0.333496 -0.238563 0.160312 1.281037 -7.638864 0.184299 0.000000 0.000000 0.000000 -3.738233 -0.927220 0.022496 -0.228091 4.184649 0.220559 -5.150361 4.213208 -1.470466 3.103238 -2.717273 1.824987 0.000000 0.000000 0.000000 0.000000 0.000000 0.000000 60.418638 19.758081 5.726404 75.272540 20.862451 -44.423786 -10.297925 13.327299 4.021997 -21.187100 -16.393399 -145.073302 0.000000 0.000000 0.000000 0.000000 0.000000 0.000000 0.014127 -4.755862 56.926751 -4.866865 0.594470 -0.543403 -2.969464 -3.722923 0.976871 0.000000 0.000000 0.000000 2.734725 5.255064 56.467107 7.412342 -4.755490 4.191126 -9.655723 2.581372 -8.178577 0.000000 0.000000 0.000000
-121.395968 83.759764 290.765979 4.383461 0.080933 -55.337308 0.368586 -0.696429 55.476163 -0.335604 -0.211866 0.154029 2.066622 -8.103647 0.065630 0.000000 0.000000 0.000000 -4.324438 -2.526993 0.451410 -0.319856 4.565746 -0.265536 -6.824489 3.416383 -2.860192 3.920051 -0.206699 3.464399 0.000000 0.000000 0.000000 0.000000 0.000000 0.000000 61.356630 19.373522 6.202409 75.978109 20.156415 -45.350541 -14.276063 12.212623 0.901207 -18.329051 -21.730507 -138.330698 0.000000 0.000000 0.000000 0.000000 0.000000 0.000000 -0.038225 -4.836387 55.993461 -4.659489 0.743573 -0.591733 -3.487922 -4.132455 1.082675 0.000000 0.000000 0.000000 3.322330 5.162336 55.571716 6.746549 -4.120975 3.806168 -6.467216 5.709751 -7.909316 0.000000 0.000000 0.000000
-121.250275 83.791416 290.711609 4.212504 0.106222 -54.771184 0.331048 -0.627890 54.900698 -0.319283 -0.207124 0.147958 2.805473 -8.534987 -0.010795 0.000000 0.000000 0.000000 -4.831036 -3.826690 0.829703 -0.400533 4.857160 -0.685544 -9.283332 3.582467 -4.302718 5.745071 1.064840 5.229281 0.000000 0.000000 0.000000 0.000000 0.000000 0.000000 61.208814 18.770208 6.648255 77.643954 20.000336 -46.788816 -19.051349 8.694766 -0.279875 -13.397273 -26.124229 -131.242272 0.000000 0.000000 0.000000 0.000000 0.000000 0.000000 0.006007 -4.830165 55.457368 -4.476017 0.905542 -0.636035 -4.070262 -4.469509 1.260723 0.000000 0.000000 0.000000 3.883817 5.262306 55.049782 6.053173 -3.596933 3.485888 -3.954277 8.185529 -7.746103 0.000000 0.000000 0.000000
-121.150730 83.792573 290.696740 3.999458 0.052906 -54.506961 0.293788 -0.572394 54.630046 -0.293756 -0.219046 0.142680 3.311938 -8.835751 -0.016259 0.000000 0.000000 0.000000 -5.225783 -4.685766 1.138477 -0.385849 5.148159 -1.003726 -12.708377 5.856301 -5.370634 9.439312 -0.399837 6.856119 0.000000 0.000000 0.000000 0.000000 0.000000 0.000000 60.260601 18.387177 6.758110 78.544616 20.153990 -46.383964 -22.146721 6.273743 -1.136010 -10.388789 -27.589757 -125.979983 0.000000 0.000000 0.000000 0.000000 0.000000 0.000000 0.005948 -4.646109 55.189248 -4.422880 0.929027 -0.651176 -4.451418 -5.028521 1.144939 0.000000 0.000000 0.000000 4.319898 5.557231 54.802726 5.433203 -3.228846 3.257000 -2.665677 9.717463 -7.488707 0.000000 0.000000 0.000000
-121.089957 83.766196 290.714022 3.796818 -0.043777 -54.317039 0.255673 -0.567302 54.436439 -0.264033 -0.210804 0.136458 3.572771 -9.132635 0.070523 0.000000 0.000000 0.000000 -5.510230 -5.136169 1.373815 -0.496309 5.090822 -1.235741 -16.099760 13.064055 -4.340894 14.729572 -6.747117 8.007699 0.000000 0.000000 0.000000 0.000000 0.000000 0.000000 57.738917 17.679524 6.803564 80.441062 20.814489 -45.567546 -24.369242 4.328658 -1.593372 -8.071177 -29.417950 -120.763552 0.000000 0.000000 0.000000 0.000000 0.000000 0.000000 -0.136987 -4.365431 54.954575 -4.404223 0.667253 -0.619291 -4.774503 -5.487922 0.954823 0.000000 0.000000 0.000000 4.554477 5.858326 54.606853 5.086018 -3.042551 3.139242 -2.373399 10.202379 -7.275257 0.000000 0.000000 0.000000
